<svg height="147" width="147" xmlns="http://www.w3.org/2000/svg" viewBox="0 0 508 508"><circle cx="254" cy="254" r="254"/><g fill="#ffd05b"><path d="M308 260.4c.4.4.4.4 0 0zm-108 0c0 .4-.4.4 0 0z"/><path d="M361.6 161.2c-2.4-23.2-31.6-34.4-31.6-34.4-11.6-28.4-36-13.2-36-13.2-4.4-6-14.4-4.4-14.4-4.4-12.4-2-11.6-7.6-11.6-7.6h-28.4s.8 5.6-11.6 7.6c0 0-10-1.6-14.4 4.4 0 0-24.4-15.2-36 13.2 0 0-28.8 11.6-31.6 34.4 0 0-5.2 10 3.6 12.4 0 0 12.8 26.8 51.6 32 0 0 5.2 7.6 16.4 9.6 0 0-.8 1.2-1.6 3.2l-1.2 3.6c-.8 3.2-1.6 6.8-.8 10.4 0 0-12.8 25.6-14.4 27.6.4-.4.8-1.2 1.2-1.2-.8 1.6-22.4 41.2-9.2 64.4 0 0-4.8 18-2 25.2 0 0-12.4 18-9.6 61.6 0 0 0 37.2-11.2 48 0 0-1.6 4.4-5.6 4.4 0 0-9.2 8 7.6 6l13.2.4s3.6-8 3.6-10.4c0 0 10.4-1.6 12-6 0 0 .8-2-3.6-11.6 0 0 .4-28.4 6.4-37.6 0 0 14.8-12.8 10-31.6v-22.4s6.8-7.2 10-18c0 0 7.6-10.8 8.4-13.6 0 0 23.6-7.6 20.4-53.6h4.8c-3.2 46.4 20.4 54 20.4 54 .8 3.2 8.4 13.6 8.4 13.6 3.2 10.8 10 18 10 18V372c-4.8 18.8 10 31.6 10 31.6 6 9.2 6.4 37.6 6.4 37.6-4.4 9.6-3.6 11.6-3.6 11.6 1.6 4.4 12 6 12 6 0 2.4 3.6 10.4 3.6 10.4l13.2-.4c16.8 2 7.6-6 7.6-6-4 0-5.6-4.4-5.6-4.4-11.2-10.8-11.2-48-11.2-48 2.8-44-9.6-61.6-9.6-61.6 2.8-7.6-2-25.2-2-25.2 13.2-22.8-8.4-62.8-9.2-64.4l1.2 1.2c-1.6-2-14.4-27.6-14.4-27.6.8-3.6.4-7.6-.8-10.4-.4-1.2-.8-2.8-1.2-3.6-.8-2-1.6-3.2-1.6-3.2 11.2-2 16.4-9.6 16.4-9.6 39.2-5.2 51.6-32 51.6-32 9.2-2.8 4-12.8 4-12.8zm-148.8 34.4c-6.8-3.2-25.2-18-25.2-18 0-.8-.4-2-.8-3.6-1.2-3.2-2.8-7.6-2.8-7.6.8 0 2-.8 3.6-1.6 2.4-1.6 5.2-3.6 5.2-3.6 1.6 9.2 17.2 19.2 17.2 19.2 3.2 3.6 7.6 14.4 7.6 14.4l-4.8.8zm108.8-22c-.4 1.6-.8 3.2-.8 3.6 0 0-18.8 14.8-25.2 18l-4.4-.8s4.4-10.8 7.6-14.4c0 0 15.2-10.4 17.2-19.2 0 0 2.8 2 5.2 3.6 1.6.8 2.8 1.6 3.6 1.6-.8 0-2.4 4.4-3.2 7.6z"/></g><path d="M254 151.6v9.6l6.8-2.4c30 5.6 37.2-10 37.2-10-20.4 16.4-40 5.6-44 2.8zm0 26.4s20 7.2 24.8 2.8c0 0-7.2 7.6-24.8 1.6V178zm0 19.6s14.8 2 19.6-2.4c0 0-3.2 8.4-19.6 6.8v-4.4zm46.8-43.2s-.8 14.4-4.4 20.4c0 0-2 10-3.6 12.8 0 0 4-15.6 0-21.2-.4 0 6.8 5.6 8-12zm32.4-2c-2 3.6-9.2 16.4-11.6 21.2 1.2-3.2 2.8-7.6 2.8-7.6-.8 0-2-.8-3.6-1.6 0 .4 9.6-7.6 12.4-12zm.4-.8c0 .4-.4.4-.4.8.4-.4.4-.8.4-.8zM254 129.2s11.6-11.2 24.8-12c0 0-19.2-1.2-24.4 8l-.4 4zm32.8 151.2c-.4 0 26 21.2 25.2 43.6 0 0 2-42.4-3.6-47.6 0 0 2.4 13.2 1.2 24 0-.4-14-18.4-22.8-20zM286 300s-5.2 36.4 13.6 38.4c0 0 10.4-6 12-11.6 0 0-2 11.6-14.4 14.4 0 0-19.2-5.6-11.2-41.2zm52.4-159.2s24.4 12.8 11.2 25.6c.4 0 7.6-12.4-11.2-25.6zm9.2 35.2s-18.4 17.6-35.2 20c-.4 0 16 2.4 35.2-20zm-44-62.4s11.2 7.6 10 19.6c0 0-3.2-14.8-10-19.6zm-49.6 38v9.6l-6.8-2.4c-30 5.6-37.2-10-37.2-10 20.4 16.4 40 5.6 44 2.8zm0 26.4s-20 7.2-24.8 2.8c0 0 7.2 7.6 24.8 1.6V178zm0 19.6s-14.8 2-19.6-2.4c0 0 3.2 8.4 19.6 6.8v-4.4zm-46.8-43.2s.8 14.4 4.4 20.4c0 0 2 10 3.6 12.8 0 0-4-15.6 0-21.2.4 0-6.8 5.6-8-12zm-32.4-2c2 3.6 9.2 16.4 11.6 21.2-1.2-3.2-2.8-7.6-2.8-7.6.8 0 2-.8 3.6-1.6 0 .4-9.6-7.6-12.4-12zm-.4-.8c0 .4.4.4.4.8-.4-.4-.4-.8-.4-.8zm79.6-22.4s-11.6-11.2-24.8-12c0 0 19.2-1.2 24.4 8l.4 4zm-32.8 151.2c.4 0-26 21.2-25.2 43.6 0 0-2-42.4 3.6-47.6 0 0-2.4 13.2-1.2 24 0-.4 14-18.4 22.8-20zm.8 19.6s5.2 36.4-13.6 38.4c0 0-10.4-6-12-11.6 0 0 2 11.6 14.4 14.4 0 0 19.2-5.6 11.2-41.2zm-52.4-159.2s-24.4 12.8-11.2 25.6c-.4 0-7.6-12.4 11.2-25.6zm-9.2 35.2s18.4 17.6 35.2 20c.4 0-16 2.4-35.2-20zm44-62.4s-11.2 7.6-10 19.6c0 0 3.2-14.8 10-19.6zm102 253.6s4 18.4-3.2 29.2c-.4 0 10-7.2 3.2-29.2zm-107.6 0s-4 18.4 3.2 29.2c.4 0-10-7.2-3.2-29.2z" fill="#f9b54c"/><path d="M292.4 230.4c-11.2 4-66 4-77.2 0-.8-.4-2 0-2.4 1.2-.4.8 0 1.6.8 2.4 11.6 8.4 36.8 32 38.8 34.4h2.8c2-2.4 27.2-26 38.8-34.4.8-.4 1.2-1.6.8-2.4-.4-1.2-1.2-1.6-2.4-1.2z" fill="#ff7058"/><g fill="#ffd05b"><path d="M276.8 62c0 16.4-10.4 36.4-22.8 36.4-12.8 0-22.8-20-22.8-36.4s10.4-22.4 22.8-22.4c12.8-.4 22.8 6 22.8 22.4z"/><path d="M266.4 84.4h-24.8s.8 19.2-6 22.4h36.8c-6.8-3.2-6-22.4-6-22.4zm11.6-9.6c-2 2.8-5.2 4-7.2 2.4-1.6-1.6-1.2-4.8 1.2-7.6 2-2.8 5.2-3.6 6.8-2.4 1.6 1.6 1.2 4.8-.8 7.6zm-48 0c2 2.8 5.2 4 7.2 2.4 1.6-1.6 1.2-4.8-1.2-7.6-2-2.8-5.2-3.6-6.8-2.4-1.6 1.6-1.2 4.8.8 7.6z"/></g></svg>